#N canvas 827 239 734 565 12;
#X obj 170 10 r \$0_refresh;
#X obj 350 10 r \$2_pitch_split;
#X obj 61 72 r \$2_pitch;
#X obj 350 60 t f f;
#X obj 172 90 random 100;
#X obj 350 111 / 2;
#X obj 180 142 - 50;
#X obj 184 191 / 100;
#X obj 182 246 t b f;
#X obj 100 303 +;
#X obj 100 357 nbx 4 18 -1e+37 1e+37 0 0 empty empty empty 0 -8 0 10 #191919 #ffffff #ffffff 0 256;
#X obj 257 281 r \$2_reset;
#X msg 257 332 0;
#X obj 107 385 *~;
#X obj 113 434 phasor~;
#X obj 403 277 r \$2_numSamples;
#X obj 410 326 sampstoms~;
#X obj 416 380 !/~ 1000;
#X obj 16 423 r \$2_direction;
#X obj 122 484 !-~ 1;
#X obj 39 535 selector~ 2;
#X obj 45 588 >=~ 0.999;
#X obj 46 632 edge~;
#X obj 54 687 s \$0_refresh;
#X obj 149 564 r \$2_numSamples;
#X obj 159 603 r \$0_refresh;
#X obj 167 660 f;
#X obj 176 712 sig~;
#X obj 165 771 *~;
#X obj 165 819 +~;
#X obj 317 590 r \$0_refresh;
#X obj 396 590 r \$2_start_index;
#X obj 321 656 f;
#X obj 321 712 sig~;
#X obj 241 852 loadbang;
#X obj 241 904 array size \$3;
#X obj 156 917 wrap2~;
#X obj 156 974 tabread4~ \$3;
#X obj 156 1032 *~;
#X obj 156 1089 outlet~;
#X obj 403 846 loadbang;
#X obj 402 892 array size \$4;
#X obj 388 961 *~;
#X obj 388 1013 tabread4~ \$4;
#X connect 0 0 4 0;
#X connect 1 0 3 0;
#X connect 2 0 9 0;
#X connect 3 0 4 1;
#X connect 3 1 5 0;
#X connect 4 0 6 0;
#X connect 5 0 6 1;
#X connect 6 0 7 0;
#X connect 7 0 8 0;
#X connect 8 0 9 0;
#X connect 8 1 9 1;
#X connect 9 0 10 0;
#X connect 10 0 13 0;
#X connect 11 0 12 0;
#X connect 12 0 14 1;
#X connect 13 0 14 0;
#X connect 14 0 19 0;
#X connect 14 0 20 1;
#X connect 15 0 16 0;
#X connect 16 0 17 0;
#X connect 17 0 13 1;
#X connect 18 0 20 0;
#X connect 19 0 20 2;
#X connect 20 0 21 0;
#X connect 20 0 28 0;
#X connect 20 0 42 0;
#X connect 21 0 22 0;
#X connect 22 0 23 0;
#X connect 24 0 26 1;
#X connect 25 0 26 0;
#X connect 26 0 27 0;
#X connect 27 0 28 1;
#X connect 28 0 29 0;
#X connect 29 0 36 0;
#X connect 30 0 32 0;
#X connect 31 0 32 1;
#X connect 32 0 33 0;
#X connect 33 0 29 1;
#X connect 34 0 35 0;
#X connect 35 0 36 2;
#X connect 36 0 37 0;
#X connect 37 0 38 0;
#X connect 38 0 39 0;
#X connect 40 0 41 0;
#X connect 41 0 42 1;
#X connect 42 0 43 0;
#X connect 43 0 38 1;
