#N canvas 827 239 734 565 12;
#X obj 77 157 cnv 15 602 377 empty empty empty 20 12 0 14 #056231 #ffffff 0;
#X obj 272 284 bng 212 250 50 0 empty \$0_go_moo empty 17 7 0 10 #4d2200 #ffffff #ffffff;
#X obj 254 173 note 248 40 Adwaita\ Sans empty 0 255 255 255 0 25 25 25 0 0 Moo Machine;
#X obj 342 254 note 73 20 Adwaita\ Sans empty 0 255 255 255 0 25 25 25 0 0 Go Moo;
#X obj 807 1318 pitch.shift~;
#X obj 846 307 bng 40 250 50 0 empty empty CLICK_TO_PLAY 20 7 0 10 #fcfcfc #000000 #000000;
#X obj 1006 1318 nbx 4 18 -1e+37 1e+37 0 0 empty empty empty 0 -8 0 10 #191919 #ffffff #ffffff 0 256;
#X obj 944 1115 rand.i 1200;
#X obj 1049 1181 nbx 4 18 -1e+37 1e+37 0 0 empty empty octave 0 -8 0 10 #191919 #ffffff #ffffff 0 256;
#X obj 954 1181 nbx 4 18 -1e+37 1e+37 0 0 empty empty cents 0 -8 0 10 #191919 #ffffff #ffffff 0 256;
#X obj 1137 1115 rand.i;
#X obj 1137 1218 nbx 4 18 -1e+37 1e+37 0 0 empty empty down/up 0 -8 0 10 #191919 #ffffff #ffffff 0 256;
#X obj 1006 1265 expr $f1 * $f2 * $f3;
#X obj 1137 1151 sel 0, f 15;
#X obj 1137 1181 - 1, f 15;
#X obj 1137 1299 nbx 4 19 -1e+37 1e+37 0 0 empty empty empty 0 -8 0 10 #191919 #ffffff #ffffff 0 256;
#X obj 1201 1299 nbx 4 18 -1e+37 1e+37 0 0 empty empty empty 0 -8 0 10 #191919 #ffffff #ffffff 0 256;
#X obj 1156 1249 loadbang;
#N canvas 1076 370 394 451 (subpatch) 0;
#X obj 112 112 cnv 15 148 248 empty empty empty 20 12 0 14 #dbdbdb #373737 0;
#X obj 199 243 else/knob 41 0 1 0 0 \$0-rev \$0-set-cutoff #dfdfdf #afafaf black 0 0 0 0 1 320 0 0 0 cutoff \$0-cutoff 0 8 0 0 0 0 0 0;
#X obj 162 326 bng 23 250 50 0 \$0-clear \$0-set-clear empty 0 -10 0 12 #dfdfdf #000000 #000000;
#X obj 130 272 else/knob 41 0 1 0 0 \$0-rev \$0-set-damp #dfdfdf #bbbbbb #000000 0 0 0 0 1 320 0 0 0 damp \$0-damp 0 8 0 0 0 0 0 0;
#X text 196 224 Cutoff;
#X obj 129 179 else/knob 41 10 200 4 10 \$0-rev \$0-set-pre #dfdfdf #bbbbbb #000000 0 0 0 0 1 320 0 0 10 pre \$0-pre 0 8 0 0 0 0 0 0;
#X obj 196 179 else/knob 41 0 1 0 0 \$0-rev \$0-set-size #dfdfdf #afafaf black 0 0 0 0 1 320 0 0 0 size \$0-size 0 8 0 0 0 0 0 0;
#X obj 199 308 else/knob 41 0 1 0 0.5 \$0-rev \$0-set-wet #9f9f9f #afafaf black 0 0 0 0 1 320 0 0 0 wet \$0-wet 0 8 0 0 0 0 0 0;
#X text 192 288 Dry/Wet;
#X text 120 329 Clear;
#X text 134 252 Damp;
#X text 201 160 Size;
#X text 117 160 Pre delay;
#X obj 131 123 else/note 101 24 Inter empty 5 54 54 54 0 187 187 187 1 1 REVERB;
#X obj 119 229 else/note 65 12 Menlo \$0-pre-label 0 0 0 0 0 255 255 255 0 1 50 ms;
#X coords 0 1 100 -1 150 250 1 111 111;
#X restore 1355 1007 graph;
#X obj 807 1372 else/plate.rev~;
#X obj 1006 1347 s pitch_amnt;
#X obj 1137 1379 r pitch_amnt;
#X obj 1540 1196 s \$0-set-pre;
#X obj 1636 1196 s \$0-set-size;
#X obj 1732 1196 s \$0-set-cutoff;
#X obj 1833 1196 s \$0-set-damp;
#X obj 1929 1196 s \$0-set-wet;
#X obj 1162 1454 r \$0-rev;
#X floatatom 1929 1160 5 0 0 0 - - - 12;
#X floatatom 1833 1160 5 0 0 0 - - - 12;
#X floatatom 1732 1160 5 0 0 0 - - - 12;
#X floatatom 1636 1160 5 0 0 0 - - - 12;
#X floatatom 1540 1160 5 0 0 0 - - - 12;
#X obj 1532 1086 rand.i 0 400;
#X obj 846 394 s big_bang;
#X obj 1097 1042 r big_bang;
#X obj 1532 1034 r big_bang;
#X obj 1926 1034 r big_bang;
#X obj 1636 1034 r big_bang;
#X obj 1636 1086 rand.f 0 0.75;
#X obj 1732 1034 r big_bang;
#X obj 1732 1086 rand.f 0 0.75;
#X obj 1833 1034 r big_bang;
#X obj 1833 1086 rand.f 0 0.75;
#X obj 1926 1086 rand.f 0 0.9;
#X obj 820 159 tgl 25 0 empty empty empty 17 7 0 10 #191919 #ffffff #ffffff 0 1;
#X obj 1112 635 table array1;
#X obj 924 508 soundfiler;
#X obj 976 568 unpack f, f 18;
#X obj 874 568 samps2ms;
#X floatatom 976 596 5 0 0 1 sample\ rate - - 12;
#X floatatom 874 677 5 0 0 0 - - - 12;
#X obj 874 622 * 0.001, f 12;
#X floatatom 937 651 5 0 0 1 total\ samples - - 12;
#X obj 974 688 s samples, f 15;
#X obj 937 712 t b f, f 8;
#X obj 937 741 f, f 9;
#X obj 937 779 /, f 8;
#X floatatom 937 812 5 0 0 0 - - - 12;
#X obj 1088 859 r samples, f 11;
#X obj 1050 895 *~, f 6;
#X obj 1050 929 tabread4~ array1, f 18;
#X obj 999 837 vline~ 0 0;
#X obj 779 622 s length_ms;
#X obj 1221 726 r length_ms, f 12;
#X obj 1278 702 r speed_coeff;
#X obj 1237 633 s speed_coeff;
#X floatatom 1237 596 5 0 0 0 - - - 12;
#X msg 1087 827 0 \, 1 \$1;
#X obj 1221 775 expr $f1 / $f2;
#X text 1330 558 speed;
#X obj 1258 441 r big_bang;
#X obj 924 415 r big_bang;
#X obj 844 1464 *~;
#X obj 904 1382 r big_bang;
#X obj 904 1435 rand.f 0.4 0.9;
#X obj 846 219 metro 2000;
#X obj 1258 543 rand.f 0.8 1.5;
#X obj 1049 1115 rand.i 0 1;
#X obj 844 1542 outlet~;
#X msg 924 465 read -resize moo.aiff array1;
#X obj 943 254 nbx 4 18 -1e+37 1e+37 0 0 empty empty empty 0 -8 0 10 #191919 #e1e1e1 #e1e1e1 0 256;
#X obj 943 219 count 1 100;
#X msg 1003 148 0;
#X connect 1 0 5 0;
#X connect 4 0 19 0;
#X connect 5 0 34 0;
#X connect 6 0 20 0;
#X connect 7 0 9 0;
#X connect 8 0 12 1;
#X connect 9 0 12 0;
#X connect 10 0 13 0;
#X connect 11 0 12 2;
#X connect 12 0 6 0;
#X connect 13 0 14 0;
#X connect 13 1 11 0;
#X connect 14 0 11 0;
#X connect 17 0 15 0;
#X connect 17 0 16 0;
#X connect 19 0 73 0;
#X connect 19 1 73 0;
#X connect 21 0 4 1;
#X connect 27 0 19 0;
#X connect 28 0 26 0;
#X connect 29 0 25 0;
#X connect 30 0 24 0;
#X connect 31 0 23 0;
#X connect 32 0 22 0;
#X connect 33 0 32 0;
#X connect 35 0 7 0;
#X connect 35 0 10 0;
#X connect 35 0 78 0;
#X connect 36 0 33 0;
#X connect 37 0 44 0;
#X connect 38 0 39 0;
#X connect 39 0 31 0;
#X connect 40 0 41 0;
#X connect 41 0 30 0;
#X connect 42 0 43 0;
#X connect 43 0 29 0;
#X connect 44 0 28 0;
#X connect 45 0 76 0;
#X connect 47 0 49 0;
#X connect 47 0 53 0;
#X connect 47 1 48 0;
#X connect 48 0 50 0;
#X connect 49 0 52 0;
#X connect 49 0 63 0;
#X connect 50 0 56 1;
#X connect 52 0 51 0;
#X connect 53 0 54 0;
#X connect 53 0 55 0;
#X connect 55 0 56 0;
#X connect 55 1 57 1;
#X connect 56 0 57 0;
#X connect 57 0 58 0;
#X connect 59 0 60 1;
#X connect 60 0 61 0;
#X connect 61 0 4 0;
#X connect 62 0 60 0;
#X connect 64 0 69 0;
#X connect 65 0 69 1;
#X connect 67 0 66 0;
#X connect 68 0 62 0;
#X connect 69 0 68 0;
#X connect 71 0 77 0;
#X connect 72 0 80 0;
#X connect 73 0 79 0;
#X connect 74 0 75 0;
#X connect 75 0 73 1;
#X connect 76 0 5 0;
#X connect 76 0 82 0;
#X connect 77 0 67 0;
#X connect 78 0 8 0;
#X connect 80 0 47 0;
#X connect 82 0 81 0;
#X connect 82 1 45 0;
#X connect 83 0 82 0;
#X coords 0 0 1 1 602 380 1 79 154;
