#N canvas 650 300 782 662 10;
#X obj 100 480 tabread4~ sound_array;
#X obj 100 50 bng 40 250 50 0 empty empty CLICK_TO_PLAY 20 7 0 10 #fcfcfc #000000 #000000;
#X obj 100 100 t b b b;
#X msg 49 150 read -resize moo.aiff sound_array;
#X obj 97 633 output~;
#X obj 49 190 soundfiler;
#X obj 458 534 loadbang;
#N canvas 1076 370 394 451 (subpatch) 1;
#X obj 112 112 cnv 15 148 248 empty empty empty 20 12 0 14 #dbdbdb #373737 0;
#X obj 199 243 else/knob 41 0 1 0 0 \$0-rev \$0-set-cutoff #dfdfdf #afafaf black 0 0 0 0 1 320 0 0 0 cutoff \$0-cutoff 0 8 0 0 0 0 0 0;
#X obj 162 326 bng 23 250 50 0 \$0-clear \$0-set-clear empty 0 -10 0 12 #dfdfdf #000000 #000000;
#X obj 130 272 else/knob 41 0 1 0 0 \$0-rev \$0-set-damp #dfdfdf #bbbbbb #000000 0 0 0 0 1 320 0 0 0 damp \$0-damp 0 8 0 0 0 0 0 0;
#X text 196 224 Cutoff;
#X obj 129 179 else/knob 41 10 200 4 10 \$0-rev \$0-set-pre #dfdfdf #bbbbbb #000000 0 0 0 0 1 320 0 0 10 pre \$0-pre 0 8 0 0 0 0 0 0;
#X obj 196 179 else/knob 41 0 1 0 0 \$0-rev \$0-set-size #dfdfdf #afafaf black 0 0 0 0 1 320 0 0 0 size \$0-size 0 8 0 0 0 0 0 0;
#X obj 199 308 else/knob 41 0 1 0 0.5 \$0-rev \$0-set-wet #9f9f9f #afafaf black 0 0 0 0 1 320 0 0 0 wet \$0-wet 0 8 0 0 0 0 0 0;
#X text 192 288 Dry/Wet;
#X text 120 329 Clear;
#X text 134 252 Damp;
#X text 201 160 Size;
#X text 117 160 Pre delay;
#X obj 131 123 else/note 101 24 Inter empty 5 54 54 54 0 187 187 187 1 1 REVERB;
#X obj 119 229 else/note 65 12 Menlo \$0-pre-label 0 0 0 0 0 255 255 255 0 1 50 ms;
#X coords 0 1 100 -1 150 250 1 111 111;
#X restore 686 168 graph;
#X obj 109 540 else/plate.rev~;
#X obj 871 357 s \$0-set-pre;
#X obj 967 357 s \$0-set-size;
#X obj 1063 357 s \$0-set-cutoff;
#X obj 1164 357 s \$0-set-damp;
#X obj 1260 357 s \$0-set-wet;
#X obj 464 577 r \$0-rev;
#X floatatom 1260 321 5 0 0 0 - - - 12;
#X floatatom 1164 321 5 0 0 0 - - - 12;
#X floatatom 1063 321 5 0 0 0 - - - 12;
#X floatatom 967 321 5 0 0 0 - - - 12;
#X floatatom 871 321 5 0 0 0 - - - 12;
#X obj 863 247 rand.i 0 400;
#X obj 279 33 s big_bang;
#X obj 399 27 r big_bang;
#X obj 863 195 r big_bang;
#X obj 1257 195 r big_bang;
#X obj 967 195 r big_bang;
#X obj 967 247 rand.f 0 0.75;
#X obj 1063 195 r big_bang;
#X obj 1063 247 rand.f 0 0.75;
#X obj 1164 195 r big_bang;
#X obj 1164 247 rand.f 0 0.75;
#X obj 1257 247 rand.f 0 0.9;
#X obj -8 -63 metro 2000;
#X obj -3 -115 tgl 25 0 empty empty empty 17 7 0 10 #191919 #ffffff #ffffff 0 1;
#X obj 508 67 table sound_array;
#X obj 100 440 vline~;
#X obj 263 241 random 1000;
#X obj 263 271 / 1000;
#X obj 263 301 + 0.5;
#X text 317 301 Speed Factor (0.5 to 1.5);
#X obj 100 376 pack f f f;
#X msg 100 407 0 \, \$2 \$3;
#X obj 181 334 / 44.1;
#X obj 181 364 /;
#X text 260 523 <-- REVERB;
#X text 170 480 <-- RAM PLAYER;
#X text 149 191 <-- Loads file into RAM;
#X connect 0 0 8 0;
#X connect 0 0 8 1;
#X connect 1 0 2 0;
#X connect 2 0 49 0;
#X connect 2 1 45 0;
#X connect 2 2 3 0;
#X connect 3 0 5 0;
#X connect 5 0 51 1;
#X connect 6 0 3 0;
#X connect 6 0 24 0;
#X connect 6 0 25 0;
#X connect 6 0 26 0;
#X connect 6 0 27 0;
#X connect 6 0 28 0;
#X connect 8 0 4 0;
#X connect 8 1 4 1;
#X connect 14 0 9 0;
#X connect 15 0 10 0;
#X connect 16 0 11 0;
#X connect 17 0 12 0;
#X connect 18 0 13 0;
#X connect 19 0 24 0;
#X connect 19 0 25 0;
#X connect 19 0 26 0;
#X connect 19 0 27 0;
#X connect 19 0 28 0;
#X connect 20 0 9 0;
#X connect 20 1 10 0;
#X connect 20 2 11 0;
#X connect 20 3 12 0;
#X connect 20 4 13 0;
#X connect 20 5 14 0;
#X connect 21 0 15 0;
#X connect 22 0 16 0;
#X connect 23 0 17 0;
#X connect 24 0 18 0;
#X connect 29 0 20 0;
#X connect 30 0 21 0;
#X connect 31 0 30 0;
#X connect 32 0 33 0;
#X connect 33 0 22 0;
#X connect 34 0 35 0;
#X connect 35 0 36 0;
#X connect 36 0 37 0;
#X connect 37 0 38 0;
#X connect 38 0 39 0;
#X connect 39 0 23 0;
#X connect 40 0 19 0;
#X connect 41 0 1 0;
#X connect 42 0 41 0;
#X connect 44 0 0 0;
#X connect 45 0 46 0;
#X connect 46 0 47 0;
#X connect 47 0 52 1;
#X connect 49 0 50 0;
#X connect 50 0 44 0;
#X connect 51 0 52 0;
#X connect 52 0 49 2;
