#N canvas 650 300 850 600 10;
#X obj 100 550 dac~;
#X obj 100 455 tabread4~ array1;
#X obj 100 400 vline~;
#X obj 550 100 table array1;
#X obj 100 100 soundfiler;
#X floatatom 260 210 5 0 0 0 - - - 0;
#X text 310 210 <-- PLAYBACK SPEED;
#X obj 100 300 pack f f;
#X msg 100 340 0 \, \$1 \$2;
#X obj 100 30 bng 30 250 50 0 empty empty Load_File 20 7 0 10 #fcfcfc #000000 #000000;
#X obj 260 250 / 1;
#X obj 260 280 abs;
#X msg 576 371 1;
#X obj 170 240 / 44.1;
#X obj 170 270 /;
#X obj 100 180 bng 40 250 50 0 empty empty PLAY_&_RECORD 20 7 0 10 #fcfcfc #000000 #000000;
#X obj 500 570 writesf~ 1;
#X msg 550 480 start;
#X msg 600 480 stop;
#X obj 600 440 del 2000;
#X obj 100 220 t b b b;
#X obj 670 325 f 0;
#X obj 670 270 + 1;
#X obj 670 371 makefilename output_%d.wav;
#X msg 500 420 open \$1;
#X obj 500 500 t a b b;
#X text 670 440 <-- RECORD DURATION (2000ms);
#X text 590 550 <-- RECORDER;
#X text 715 195 <-- File Counter;
#X msg 100 60 read -resize moo.aiff array1;
#X connect 1 0 0 0;
#X connect 1 0 0 1;
#X connect 1 0 16 0;
#X connect 2 0 1 0;
#X connect 5 0 10 1;
#X connect 7 0 8 0;
#X connect 8 0 2 0;
#X connect 9 0 29 0;
#X connect 10 0 11 0;
#X connect 11 0 14 1;
#X connect 12 0 5 0;
#X connect 12 0 17 0;
#X connect 13 0 14 0;
#X connect 14 0 7 1;
#X connect 15 0 20 0;
#X connect 17 0 16 0;
#X connect 18 0 16 0;
#X connect 19 0 18 0;
#X connect 20 0 21 0;
#X connect 20 1 7 0;
#X connect 20 1 13 0;
#X connect 21 0 23 0;
#X connect 21 0 22 0;
#X connect 22 0 21 1;
#X connect 23 0 24 0;
#X connect 24 0 25 0;
#X connect 25 0 16 0;
#X connect 25 1 17 0;
#X connect 25 2 19 0;
#X connect 29 0 4 0;
